<?xml version="1.0" encoding="UTF-8"?>
<svg xmlns="http://www.w3.org/2000/svg" id="Layer_1" data-name="Layer 1" width="997.41309" height="180.68891"
     viewBox="0 0 997.41309 180.68891">
    <defs>
        <style>.cls-1, .cls-2 { fill: #016699; } .cls-2 { fill-rule: evenodd; } .cls-3 { fill: none; stroke: #016699;
            stroke-miterlimit: 10; stroke-width: 2px; }
        </style>
    </defs>
    <title>line_right_blue</title>
    <g>
        <g>
            <path class="cls-1"
                  d="M177.16764,558.46594c-6.63293-6.07843-27.17556-19.45808-44.37883-36.66108-17.06733-17.06759-30.67687-37.74872-36.66417-44.38192-4.53308-4.53308-7.14857-4.53308-11.68165,0-5.99374,6.63319-19.59684,27.31432-36.66443,44.38192-17.203,17.203-37.74564,31.1248-44.37857,36.66108-4.53334,4.53334-4.53334,7.14857,0,11.6819,6.63293,5.90827,27.31433,19.59684,44.3814,36.66417,17.20351,17.20326,30.6743,37.74589,36.6616,44.37883,4.53308,4.53334,7.14857,4.53334,11.68165,0,5.90853-6.63293,19.45808-27.17557,36.66159-44.37883,17.06708-17.06733,37.8831-31.20666,44.3814-36.66417C181.701,565.61451,181.701,562.99928,177.16764,558.46594ZM156.6209,568.98246a331.717,331.717,0,0,1-29.14877,33.9918l-.00824.0085a306.5689,306.5689,0,0,1-32.11487,27.762l-.04685.0278a8.46474,8.46474,0,0,1-10.08841,0A327.51758,327.51758,0,0,1,52.40587,602.317l-.0085-.00824a327.539,327.539,0,0,1-28.45551-32.80813l.00489-.00489a8.464,8.464,0,0,1,0-10.08816A327.4816,327.4816,0,0,1,52.402,526.59923l.0085-.00824a327.54518,327.54518,0,0,1,32.80813-28.45551,8.46474,8.46474,0,0,1,10.08816,0l.001-.00077.00463-.00463a327.4904,327.4904,0,0,1,32.80813,28.45525l.0085.0085a314.07909,314.07909,0,0,1,28.48717,33.26662l.00464.01442A7.05274,7.05274,0,0,1,156.6209,568.98246Z"
                  transform="translate(0 -474.02313)"></path>
            <path class="cls-1"
                  d="M151.84145,560.20385a291.45513,291.45513,0,0,0-26.43675-30.87226l-.00746-.00772a303.93737,303.93737,0,0,0-30.44673-26.40714l-.00438.00438-.0502-.04865a7.781,7.781,0,0,0-9.31278.04968,303.91594,303.91594,0,0,0-30.44647,26.40714l-.00772.00772a303.91594,303.91594,0,0,0-26.40714,30.44647,7.855,7.855,0,0,0,0,9.3622l-.00438.00438a303.916,303.916,0,0,0,26.40714,30.44647l.00772.00772a303.916,303.916,0,0,0,30.44647,26.40714,7.855,7.855,0,0,0,9.3622,0l.04351-.02574a284.49625,284.49625,0,0,0,29.80289-25.76357l.008-.008a307.8513,307.8513,0,0,0,27.05046-31.54493,6.54524,6.54524,0,0,0,0-8.45219ZM90.13761,516.64519l9.96665,28.76082-6.64709-.00154,1.23952,27.38332a25.17958,25.17958,0,0,1-8.99357-.04943L86.885,545.40447H80.094Zm-5.795,91.66841,1.21713-28.14968a50.30143,50.30143,0,0,0,9.65053-.02085l1.27762,28.17054A31.80846,31.80846,0,0,1,84.34261,608.3136Zm4.20228-29.7944c-20.72129,0-37.47817-6.669-37.51935-14.8954-.02806-5.64595,7.86474-10.55513,19.55977-13.08155l8.90166,5.72961c-9.11173,1.63648-15.35208,4.97226-15.35208,8.82134,0,5.46549,12.58059,9.89586,28.09923,9.89586,13.33126,0,28.29538-4.43037,28.29538-9.89586-.06873-3.44132-4.05375-5.43666-7.92471-7.364l-5.30717,1.21249-2.79878-7.72366,17.23286,4.211-3.88822.98827s6.57527,3.40477,7.97569,7.20649C128.55719,571.90841,110.58731,578.5192,88.54489,578.5192Z"
                  transform="translate(0 -474.02313)"></path>
        </g>
        <path class="cls-2"
              d="M121.13034,634.5789a6.32454,6.32454,0,1,0,6.33071,6.31449A6.11135,6.11135,0,0,0,121.13034,634.5789Zm0,11.18558v-.01982a4.85745,4.85745,0,0,1,0-9.69249,4.86778,4.86778,0,0,1,0,9.71231Zm2.82787-6.21925c0-1.55848-1.03-2.04966-2.79157-2.04966h-2.54315v6.80567H120.079v-2.86159h.69171l1.56595,2.86159H124.072l-1.75644-2.987A1.59126,1.59126,0,0,0,123.95821,639.54524Zm-2.58228.73651H120.079v-1.64369h1.02509c.555,0,1.309.05535,1.309.762C122.41311,640.14659,122.02851,640.28174,121.37593,640.28174Z"
              transform="translate(0 -474.02313)"></path>
        <polygon class="cls-1"
                 points="205.883 160.333 205.883 23.837 243.693 23.837 243.693 160.333 205.883 160.333 205.883 160.333"></polygon>
        <polygon class="cls-1"
                 points="263.536 160.333 263.536 23.837 367.511 23.837 367.511 50.3 301.344 50.3 301.344 78.466 362.214 78.466 362.214 104.936 301.344 104.936 301.344 133.856 367.511 133.856 367.511 160.333 263.536 160.333 263.536 160.333"></polygon>
        <polygon class="cls-1"
                 points="388.696 160.333 388.696 23.837 492.646 23.837 492.646 50.3 426.496 50.3 426.496 78.466 487.344 78.466 487.344 104.936 426.496 104.936 426.496 133.856 492.646 133.856 492.646 160.333 388.696 160.333 388.696 160.333"></polygon>
        <polygon class="cls-1"
                 points="513.816 160.333 513.816 23.837 617.794 23.837 617.794 50.3 551.649 50.3 551.649 78.466 612.502 78.466 612.502 104.936 551.649 104.936 551.649 133.856 617.794 133.856 617.794 160.333 513.816 160.333 513.816 160.333"></polygon>
    </g>
    <g>
        <path class="cls-1"
              d="M747.4541,544.41992c-.16113,1.89746-.20117,2.46289-.28223,3.99707l-.24219.28223a15.93146,15.93146,0,0,1-7.63086,1.77637c-8.8418,0-14.05078-5.85449-14.05078-14.85742,0-1.97852.16211-6.86426,3.67383-10.69922,3.43262-3.75488,7.793-4.15918,10.65918-4.15918a20.23116,20.23116,0,0,1,7.38867,1.292l.16113.32324c-.20117,1.45313-.24219,1.85742-.36328,3.59375l-.36328.16113a11.17724,11.17724,0,0,0-6.41895-1.81738c-6.46,0-9.97266,4.44141-9.97266,11.22461,0,7.63086,4.1582,11.18359,9.73047,11.18359a12.23581,12.23581,0,0,0,7.42871-2.46289Z"
              transform="translate(0 -474.02313)"></path>
        <path class="cls-1"
              d="M766.7168,541.55273a76.00689,76.00689,0,0,0,.24219,8.0752l-.20117.20215c-1.89746.04-2.2207.08008-4.07812.16113l-.16113-.24219.04-1.45312a8.65093,8.65093,0,0,1-5.65234,2.05859,6.49673,6.49673,0,0,1-6.86426-6.74219c0-5.41016,4.52246-7.14648,11.79-7.99414l.68652-.08105a5.05161,5.05161,0,0,0-.36328-2.50293c-.4043-.72754-1.333-1.49414-3.35156-1.49414a14.41089,14.41089,0,0,0-6.13672,1.53418l-.32324-.20215c.08105-1.85742.08105-2.09961.12109-2.94727l.24219-.24219a20.80551,20.80551,0,0,1,6.98535-1.332c2.9873,0,5.89453,1.00879,6.74219,4.1582a27.06414,27.06414,0,0,1,.28223,5.04688Zm-4.52148-2.94727c-4.07812.60547-7.873,1.1709-7.873,4.76465a3.56059,3.56059,0,0,0,3.83594,3.67383,6.301,6.301,0,0,0,4.40039-1.77637v-6.74316Z"
              transform="translate(0 -474.02313)"></path>
        <path class="cls-1"
              d="M776.69336,549.83008c-1.9375.04-2.3418.08008-4.23926.16113l-.20215-.28223c.08105-2.86719.20215-6.501.20215-14.25293,0-5.57129,0-11.54687-.40332-16.71484l.20117-.24219c1.97852-.32324,2.38281-.4043,4.40137-.84766l.24219.28223c-.28223,5.28906-.28223,10.61914-.28223,15.9082,0,8.8418.12109,11.91016.32227,15.74609Z"
              transform="translate(0 -474.02313)"></path>
        <path class="cls-1"
              d="M799.22656,549.87012c-2.2207,0-2.3418,0-4.44141.12109l-.24219-.28223c.08008-2.54395.12109-4.52246.12109-9.24609,0-6.25781,0-12.67773-.36328-18.81445l.20117-.2832c.64648,0,3.6748-.08008,4.40137-.08008l2.665-.08105a22.30025,22.30025,0,0,1,6.66113.60547,7.92578,7.92578,0,0,1,5.65234,7.9541,8.71724,8.71724,0,0,1-1.21094,4.52148c-2.3418,3.917-6.86328,4.76465-11.668,4.76465-.72656,0-1.252-.04-1.81738-.04.041,4.36035.041,5.65234.2832,10.57813Zm4.03711-14.293c1.08984-.08008,3.99707-.36328,5.41016-2.86621a5.94211,5.94211,0,0,0,.68652-2.90723,6.13856,6.13856,0,0,0-.48437-2.50293c-1.333-2.78613-4.40137-2.82617-6.09668-2.82617a34.82725,34.82725,0,0,0-3.63379.16113c0,1.85742-.04,3.75488-.04,5.65234,0,1.81738.04,3.63379.04,5.45117C800.51855,535.69824,802.17383,535.69824,803.26367,535.57715Z"
              transform="translate(0 -474.02313)"></path>
        <path class="cls-1"
              d="M835.52637,542.96582a9.62766,9.62766,0,0,1-2.624,4.88574c-1.77637,1.77637-4.15918,2.46289-6.98535,2.46289a9.73429,9.73429,0,0,1-7.22656-2.70508c-2.74609-2.78613-2.78613-6.9043-2.78613-8.23633,0-1.53418.08105-5.49121,2.78613-8.19629a10.08548,10.08548,0,0,1,7.50977-2.82617,9.46607,9.46607,0,0,1,7.22656,2.90723c1.85742,2.13965,2.38281,4.96582,2.46289,7.792A17.40548,17.40548,0,0,1,835.52637,542.96582Zm-5.208-9.24512a4.712,4.712,0,0,0-4.32031-2.30176,5.01187,5.01187,0,0,0-4.44141,2.3418c-1.08984,1.65527-1.21094,3.99707-1.21094,5.69238,0,1.61523.04,5.69336,3.22949,7.30859a5.40377,5.40377,0,0,0,2.38281.52441,4.90734,4.90734,0,0,0,4.60254-2.70508,12.3994,12.3994,0,0,0,.92871-5.37012A12.66022,12.66022,0,0,0,830.31836,533.7207Z"
              transform="translate(0 -474.02313)"></path>
        <path class="cls-1"
              d="M844.85742,549.83008c-1.9375.04-2.3418.08008-4.23926.16113l-.20215-.28223c.08105-2.86719.20215-6.501.20215-14.25293,0-5.57129,0-11.54687-.40332-16.71484l.20117-.24219c1.97852-.32324,2.38281-.4043,4.40137-.84766l.24219.28223c-.28223,5.28906-.28223,10.61914-.28223,15.9082,0,8.8418.12109,11.91016.32227,15.74609Z"
              transform="translate(0 -474.02313)"></path>
        <path class="cls-1"
              d="M866.54,529.11719c-2.30176,5.69336-6.17773,16.35254-7.18652,19.17871a109.29838,109.29838,0,0,0-3.31152,11.10254l-.36328.32324c-2.01855.04-2.38184.04-4.2793.12109l-.16113-.28223.16113-.2832c.72656-1.49414,1.332-3.06836,2.01855-4.64258.56543-1.333,1.252-2.625,1.69629-4.03809a3.00652,3.00652,0,0,0,.12109-.32324c0-.48437-6.0166-16.75488-7.752-20.873l.16113-.36328c2.01855-.16211,2.42285-.16211,4.48145-.4043l.24219.24219c1.08984,3.63379,1.61523,5.33008,2.50293,7.9541L857.415,544.541l2.30176-7.10645c.84766-2.78613,1.85742-6.09668,2.50293-8.39746l.28223-.24219c1.00977,0,2.09961,0,3.917-.041Z"
              transform="translate(0 -474.02313)"></path>
        <path class="cls-1"
              d="M736.63379,587.00391c2.94727,1.291,6.86426,2.9873,6.86426,8.15527,0,4.52148-3.35156,8.59961-10.377,8.59961a17.49324,17.49324,0,0,1-7.99414-1.77637l-.16113-.28223c.16113-1.41309.20215-2.18066.32324-3.71484l.40332-.16113a11.91452,11.91452,0,0,0,7.10547,2.38184c4.15918,0,5.89551-2.13965,5.89551-4.5625,0-2.82617-2.3418-3.916-4.9668-4.92578l-2.01855-.8877c-2.86621-1.333-6.70215-3.06934-6.70215-7.99414a7.46458,7.46458,0,0,1,1.252-4.24023c1.85742-2.66406,5.208-3.55273,8.47852-3.55273a21.109,21.109,0,0,1,7.26758,1.292l.20215.32324c-.16211,1.53418-.20215,2.09961-.32324,3.55273l-.32324.16211a13.32718,13.32718,0,0,0-6.66211-1.85742c-3.35059,0-5.4502,1.57422-5.4502,3.95605a3.62207,3.62207,0,0,0,2.05859,3.19043,21.92169,21.92169,0,0,0,3.10938,1.45313Z"
              transform="translate(0 -474.02313)"></path>
        <path class="cls-1"
              d="M757.18848,599.96387c-.12109,1.332-.12109,1.61523-.16211,2.78613l-.20117.24219a11.00608,11.00608,0,0,1-3.02832.36328c-.96875,0-3.5127,0-4.76465-2.09961-.72656-1.1709-.72656-2.13965-.72656-6.9043l.08105-8.88281c-1.41309,0-1.4541.041-2.90723.08105l-.16113-.24219c.08008-1.292.08008-1.61523.08008-2.90723l.24219-.24219c.88867,0,1.41406.041,2.74609,0-.041-.84766-.041-1.73633-.041-2.584q-.06006-1.1499-.12109-2.30078l.20215-.2832c1.81738-.44434,2.26074-.56543,4.11816-1.12988l.2832.20117c-.12109,2.665-.16211,3.19043-.16211,6.1377,1.69629-.041,2.18066-.041,4.48145-.12109l.20215.24219c-.08105,1.0498-.12109,1.49316-.12109,2.86621l-.20215.24219c-2.01855-.04-2.26074-.08105-4.40039-.08105l-.08105,7.50977c.041.48438.041,2.78613.041,3.35156,0,2.94727.36328,3.876,2.38184,3.876a5.49861,5.49861,0,0,0,1.9375-.36328Z"
              transform="translate(0 -474.02313)"></path>
        <path class="cls-1"
              d="M778.42676,582.2793c-.08105,3.06836-.12109,5.93555-.12109,9.20605,0,4.96582.12109,7.95313.20215,9.68945,0,.56543.04,1.13086.08008,1.69629l-.16113.24219c-1.93848.04-2.26074.08008-4.11816.16113l-.24219-.24219.04-1.69531a10.319,10.319,0,0,1-6.33887,2.30078,7.5317,7.5317,0,0,1-4.60254-1.373c-2.584-2.09863-2.584-5.53125-2.624-8.67969v-2.50391c-.08105-5.77344-.08105-6.41895-.20215-8.59961l.20215-.28223c1.89746-.041,2.26074-.041,4.1582-.20215l.24219.28223-.16113,8.84277c0,1.08984-.041,1.89746,0,3.835.04,1.69629.12109,5.33008,4.19922,5.33008a8.05708,8.05708,0,0,0,5.04688-2.09961c.04-2.18066.04-4.03809.04-6.37988a82.8845,82.8845,0,0,0-.2832-9.36621l.24316-.2832c1.85645-.04,2.30078-.04,4.1582-.16113Z"
              transform="translate(0 -474.02313)"></path>
        <path class="cls-1"
              d="M797.64844,571.78223c2.05957-.36328,2.46289-.44434,4.28027-.84766l.28223.24219c-.28223,5.6123-.32324,15.625-.32324,19.66211,0,6.25781.16211,9.24609.32324,12.03223l-.20215.28223c-1.77637,0-2.26074.04-4.11816.12109l-.28223-.24219.08105-1.49414a8.54692,8.54692,0,0,1-5.57227,2.01855c-5.37012,0-9.084-4.23926-9.084-10.376A11.21651,11.21651,0,0,1,786.58594,584.5c2.94727-2.66406,6.7832-2.78613,8.88281-2.78613.84766,0,1.251,0,2.3418.08105a89.8996,89.8996,0,0,0-.36328-9.77051Zm.041,13.2832c-.68652-.04-1.1709-.12109-2.01953-.12109a7.39625,7.39625,0,0,0-8.19531,8.23633,7.64426,7.64426,0,0,0,1.49316,4.96582,5.316,5.316,0,0,0,4.15918,1.81738,6.69987,6.69987,0,0,0,4.52148-1.77637C797.72949,592.89844,797.72949,591.68652,797.68945,585.06543Z"
              transform="translate(0 -474.02313)"></path>
        <path class="cls-1"
              d="M824.42188,598.22754c-.20215,1.61523-.24219,2.01855-.32324,3.59375l-.24219.28223a13.18841,13.18841,0,0,1-6.46,1.53418c-6.62109,0-10.78027-3.79492-10.78027-10.82031,0-7.50977,4.52246-11.18359,9.81152-11.18359a8.42823,8.42823,0,0,1,6.62109,2.78613c2.30176,2.74512,2.2207,6.74219,2.18066,8.51855l-.2832.24219c-6.29785-.04-7.38867-.04-14.00977,0a7.867,7.867,0,0,0,1.53418,5.04688,6.54895,6.54895,0,0,0,5.208,2.18066,10.52409,10.52409,0,0,0,3.5127-.60645,10.16242,10.16242,0,0,0,2.90723-1.77637ZM820.667,587.68945a4.513,4.513,0,0,0-4.40137-3.14844c-2.26074,0-4.92578,1.53418-5.3291,5.57129,4.88574.04,6.41992,0,10.13379-.04A8.807,8.807,0,0,0,820.667,587.68945Z"
              transform="translate(0 -474.02313)"></path>
        <path class="cls-1"
              d="M847.43848,603.11328c-1.9375.04-2.17969.04-4.03711.16113l-.28223-.28223c0-.44434.04-.88867.04-1.333.04-1.97852.04-3.95605.04-5.93457,0-6.21777-.04-6.62207-.24219-7.46973-.7666-3.06836-3.06836-3.06836-3.63379-3.06836a8.84784,8.84784,0,0,0-5.36914,2.26074c-.041,7.02539.04,10.69922.32227,15.42383l-.24219.24219c-1.97852.04-2.30078.04-4.23926.16113l-.20215-.28223c.041-2.26172.12109-4.44141.12109-7.42969,0-6.46-.28223-9.8916-.48437-12.59668l.24219-.28223c2.01953-.36328,2.38281-.44434,4.28027-.80762l.28223.28223-.04,2.09961a12.22642,12.22642,0,0,1,7.10547-2.50293,6.97693,6.97693,0,0,1,3.35156.7666,5.468,5.468,0,0,1,2.3418,2.625c.52441,1.21094.56543,2.42188.60547,4.92578v4.72363c.12109,4.72363.16113,6.541.28223,8.0752Z"
              transform="translate(0 -474.02313)"></path>
        <path class="cls-1"
              d="M862.34082,599.96387c-.12109,1.332-.12109,1.61523-.16211,2.78613l-.20117.24219a11.00608,11.00608,0,0,1-3.02832.36328c-.96875,0-3.5127,0-4.76465-2.09961-.72656-1.1709-.72656-2.13965-.72656-6.9043l.08105-8.88281c-1.41309,0-1.4541.041-2.90723.08105l-.16113-.24219c.08008-1.292.08008-1.61523.08008-2.90723l.24219-.24219c.88867,0,1.41406.041,2.74609,0-.041-.84766-.041-1.73633-.041-2.584q-.06006-1.1499-.12109-2.30078l.20215-.2832c1.81738-.44434,2.26074-.56543,4.11816-1.12988l.2832.20117c-.12109,2.665-.16211,3.19043-.16211,6.1377,1.69629-.041,2.18066-.041,4.48145-.12109l.20215.24219c-.08105,1.0498-.12109,1.49316-.12109,2.86621l-.20215.24219c-2.01855-.04-2.26074-.08105-4.40039-.08105l-.08105,7.50977c.041.48438.041,2.78613.041,3.35156,0,2.94727.36328,3.876,2.38184,3.876a5.49861,5.49861,0,0,0,1.9375-.36328Z"
              transform="translate(0 -474.02313)"></path>
        <path class="cls-1"
              d="M878.00879,603.27441l-.20215-.28223c.08105-1.93848.12109-3.7959.12109-7.46973,0-1.73633.041-10.1748.041-12.07227,0-4.23926-.12109-6.41895-.2832-8.51855l.20215-.2832,5.41016-.08008c.80762-.041,2.05957-.041,3.14941-.041,2.38184,0,4.92578.08105,6.94434,1.252a6.11029,6.11029,0,0,1,3.18945,5.53125c0,1.41309-.40332,5.4502-6.01562,6.82324a9.62417,9.62417,0,0,1,3.71484.72656,6.28641,6.28641,0,0,1,3.835,6.09668,7.82562,7.82562,0,0,1-5.53125,7.50977c-2.13965.76758-4.2793.76758-7.46875.76758Zm4.36035-16.43262c3.63379.04,6.41992,0,8.11523-1.332a4.6991,4.6991,0,0,0,1.65625-3.5127,4.247,4.247,0,0,0-1.13086-2.86719c-1.41309-1.37207-3.916-1.37207-4.84473-1.37207-1.292,0-2.54395.04-3.7959.12109Zm0,3.3916c0,4.60254,0,5.28906.16211,9.69043h.7666c3.02832,0,5.49121.04,7.06543-.60645a4.57049,4.57049,0,0,0,3.02832-4.44043c0-4.72461-5.208-4.76465-7.14648-4.76465-.36328,0-.72656,0-2.90625.08105Z"
              transform="translate(0 -474.02313)"></path>
        <path class="cls-1"
              d="M912.1709,586.35742a4.15778,4.15778,0,0,0-1.61523-.36328,3.00974,3.00974,0,0,0-1.69531.52441c-1.65527,1.1709-1.65527,2.94727-1.65527,7.14648,0,4.5625.12109,6.94434.28223,9.20605l-.20117.28223c-1.89844,0-2.3418.04-4.28027.12109l-.20215-.24219c.041-3.06836.08105-5.85449.08105-9.60937a86.65438,86.65438,0,0,0-.36328-10.457l.24219-.28223c1.53418-.2832,2.50293-.48437,4.19922-.80762l.24219.24219-.20215,3.43164c.48438-1.292,1.49414-3.876,4.92578-3.876a4.17412,4.17412,0,0,1,1.13086.12109l.16113.24219c-.40332,1.93848-.48437,2.3418-.7666,4.11816Z"
              transform="translate(0 -474.02313)"></path>
        <path class="cls-1"
              d="M931.63281,594.83594a76.00689,76.00689,0,0,0,.24219,8.0752l-.20117.20215c-1.89746.04-2.2207.08008-4.07812.16113l-.16113-.24219.04-1.45312a8.65093,8.65093,0,0,1-5.65234,2.05859,6.49673,6.49673,0,0,1-6.86426-6.74219c0-5.41016,4.52246-7.14648,11.79-7.99414l.68652-.08105a5.05161,5.05161,0,0,0-.36328-2.50293c-.4043-.72754-1.333-1.49414-3.35156-1.49414a14.41089,14.41089,0,0,0-6.13672,1.53418l-.32324-.20215c.08105-1.85742.08105-2.09961.12109-2.94727l.24219-.24219a20.80551,20.80551,0,0,1,6.98535-1.332c2.9873,0,5.89453,1.00879,6.74219,4.1582a27.06414,27.06414,0,0,1,.28223,5.04688Zm-4.52148-2.94727c-4.07812.60547-7.873,1.1709-7.873,4.76465a3.56059,3.56059,0,0,0,3.83594,3.67383,6.301,6.301,0,0,0,4.40039-1.77637v-6.74316Z"
              transform="translate(0 -474.02313)"></path>
        <path class="cls-1"
              d="M955.13477,603.11328c-1.9375.04-2.17969.04-4.03711.16113l-.28223-.28223c0-.44434.04-.88867.04-1.333.04-1.97852.04-3.95605.04-5.93457,0-6.21777-.04-6.62207-.24219-7.46973-.7666-3.06836-3.06836-3.06836-3.63379-3.06836a8.84784,8.84784,0,0,0-5.36914,2.26074c-.041,7.02539.04,10.69922.32227,15.42383l-.24219.24219c-1.97852.04-2.30078.04-4.23926.16113l-.20215-.28223c.041-2.26172.12109-4.44141.12109-7.42969,0-6.46-.28223-9.8916-.48437-12.59668l.24219-.28223c2.01953-.36328,2.38281-.44434,4.28027-.80762l.28223.28223-.04,2.09961a12.22642,12.22642,0,0,1,7.10547-2.50293,6.97693,6.97693,0,0,1,3.35156.7666,5.468,5.468,0,0,1,2.3418,2.625c.52441,1.21094.56543,2.42188.60547,4.92578v4.72363c.12109,4.72363.16113,6.541.28223,8.0752Z"
              transform="translate(0 -474.02313)"></path>
        <path class="cls-1"
              d="M975.97168,598.34863c-.16113,1.73633-.20117,1.93848-.32227,3.59375l-.2832.28223a11.37323,11.37323,0,0,1-5.57129,1.373c-6.09668,0-10.05371-4.40137-10.05371-10.69922,0-6.41992,3.876-11.26465,10.13379-11.26465a13.26489,13.26489,0,0,1,5.53125,1.292l.16211.28223c-.16211,1.4541-.20215,1.97852-.2832,3.18945l-.32227.16211a7.6494,7.6494,0,0,0-4.48145-1.5752c-3.35156,0-6.29883,2.584-6.29883,7.752,0,5.49121,3.1084,7.46973,6.25781,7.46973a8.00619,8.00619,0,0,0,5.209-2.01855Z"
              transform="translate(0 -474.02313)"></path>
        <path class="cls-1"
              d="M997.1709,603.11328c-1.9375.04-2.17969.04-4.03711.16113l-.28223-.28223.04-1.333c.04-2.09961.04-4.23926.04-6.33887l-.04-4.31934a12.39364,12.39364,0,0,0-.20215-2.74609,3.5248,3.5248,0,0,0-3.63379-3.06836,9.245,9.245,0,0,0-5.41016,2.26074c-.04,7.02539.041,10.69922.2832,15.42383l-.20215.24219c-1.85742.04-2.3418.04-4.32031.16113l-.20215-.28223c.08105-2.86719.20215-6.501.20215-14.25293,0-3.3916-.04-6.78223-.08105-10.17383-.08008-3.55371-.20117-4.72461-.32227-6.541l.20117-.24219c1.93848-.32324,2.584-.44434,4.40137-.84766l.24219.28223c-.24219,4.32031-.24219,8.68066-.24219,13.041a13.03184,13.03184,0,0,1,7.22656-2.50293,6.83887,6.83887,0,0,1,2.70508.48438,5.41547,5.41547,0,0,1,3.31152,3.83594,18.54258,18.54258,0,0,1,.28223,3.99707v4.72363l.04,1.89746c.08105,3.3916.08105,3.957.24219,6.17773Z"
              transform="translate(0 -474.02313)"></path>
    </g>
    <line class="cls-3" x1="670.35586" y1="0.30578" x2="670.35586" y2="180.68891"></line>
</svg>