<?xml version="1.0" encoding="UTF-8"?> <svg xmlns="http://www.w3.org/2000/svg" id="Layer_1" data-name="Layer 1" width="995.99304" height="453.64672" viewBox="0 0 995.99304 453.64672"> <defs> <style> .cls-1, .cls-2 { fill: #069; } .cls-2 { fill-rule: evenodd; } .cls-3 { fill: none; stroke: #069; stroke-width: 4px; } </style> </defs> <title>cntr_line_blue_thick</title> <g> <g> <path class="cls-1" d="M288.77771,379.47677c-10.63581-9.74667-43.57561-31.20075-71.16079-58.7855-27.3672-27.36763-49.1899-60.52952-58.79044-71.16574-7.26873-7.26873-11.46262-7.26873-18.73135,0-9.61087,10.63622-31.42324,43.79811-58.79087,71.16574-27.58475,27.58475-60.52456,49.90815-71.16037,58.7855-7.26914,7.26914-7.26914,11.46262,0,18.73176C20.77971,407.68235,53.942,429.63177,81.30881,456.999c27.58558,27.58517,49.18578,60.525,58.78633,71.16079,7.26873,7.26914,11.46262,7.26914,18.73135,0,9.47424-10.63581,31.20075-43.57562,58.78632-71.16079,27.3668-27.36722,60.745-50.03942,71.16491-58.79045C296.04685,390.93939,296.04685,386.74591,288.77771,379.47677Zm-32.9464,16.86308c-3.178,4.23765-23.20223,31.07526-46.73962,54.50534l-.01322.01362a491.57866,491.57866,0,0,1-51.49571,44.51595l-.07513.04458c-4.39492,3.64159-11.69337,3.48679-16.17662,0a525.16956,525.16956,0,0,1-52.60694-45.628l-.01362-.01321a525.20394,525.20394,0,0,1-45.628-52.60735l.00784-.00784c-3.64159-4.39492-3.48721-11.69337,0-16.17621A525.11187,525.11187,0,0,1,88.71788,328.379l.01362-.01321a525.21382,525.21382,0,0,1,52.60735-45.628c4.48326-3.48679,11.78129-3.64117,16.17621,0l.00165-.00124.00743-.00743a525.126,525.126,0,0,1,52.60734,45.62757l.01362.01362c23.537,23.43007,42.50032,49.10487,45.67876,53.34252l.00744.02312C259.47289,386.13086,259.3185,391.857,255.83131,396.33985Z" transform="translate(-2.00696 -244.07398)"></path> <path class="cls-1" d="M248.16754,382.26348c-2.94935-3.9326-20.548-27.75936-42.39093-49.50321l-.012-.01238a487.35905,487.35905,0,0,0-48.82088-42.34346l-.007.007-.08049-.078c-4.07873-3.37947-10.77244-3.15656-14.9329.07967A487.32469,487.32469,0,0,0,93.1029,332.75655l-.01238.01238A487.32467,487.32467,0,0,0,50.74705,381.5894c-3.23623,4.16046-3.37947,10.93343,0,15.01216l-.007.007A487.32467,487.32467,0,0,0,93.0835,445.429l.01238.01238a487.32467,487.32467,0,0,0,48.82046,42.34346c4.16046,3.23623,10.93343,3.37947,15.01216,0l.06976-.04128a456.18551,456.18551,0,0,0,47.78849-41.3115l.0128-.0128c21.84292-21.74344,40.42566-46.64922,43.375-50.58182a10.49519,10.49519,0,0,0,0-13.553Zm-98.94119-69.84566,15.98137,46.11755-10.65851-.00248,1.98756,43.90874a40.37509,40.37509,0,0,1-14.421-.07925l1.89509-43.82948H133.12155Zm-9.2922,146.98893,1.95165-45.1376a80.65761,80.65761,0,0,0,15.47447-.03344l2.04865,45.171C154.29287,460.77679,144.82565,460.5382,139.93415,459.40676Zm6.7383-47.77488c-33.22628,0-60.09568-10.6936-60.16173-23.88455-.045-9.0532,12.611-16.925,31.3638-20.97607l14.27368,9.18735c-14.61052,2.62407-24.61683,7.97294-24.61683,14.14489,0,8.76383,20.17279,15.86786,45.05669,15.86786,21.37647,0,45.37122-7.104,45.37122-15.86786-.11021-5.51811-6.50012-8.7176-12.70715-11.80812l-8.51,1.94422-4.4878-12.38478,27.63263,6.75233-6.2347,1.58468s10.54335,5.45949,12.7889,11.5555C210.83157,401.03156,182.01714,411.63188,146.67245,411.63188Z" transform="translate(-2.00696 -244.07398)"></path> </g> <path class="cls-2" d="M198.92273,501.52277c-5.38808,0-10.17926,3.72868-10.17926,10.1252a10.16531,10.16531,0,1,0,10.17926-10.1252Zm0,17.93591v-.03178c-4.0197.03178-7.26006-3.09423-7.26006-7.77893,0-4.66075,3.24036-7.76283,7.26006-7.76283,3.92353,0,7.26625,3.10208,7.26625,7.76283C206.189,516.33266,202.84626,519.45868,198.92273,519.45868Zm4.53445-9.97247c0-2.499-1.65156-3.28659-4.47625-3.28659H194.903v10.91279h2.33388V512.5239h1.10915l2.511,4.58852h2.78258l-2.81643-4.78954A2.55155,2.55155,0,0,0,203.45718,509.48622Zm-4.14065,1.181h-2.07961v-2.63563h1.64371c.89,0,2.099.08875,2.099,1.22184C200.97964,510.45048,200.36294,510.66719,199.31653,510.66719Z" transform="translate(-2.00696 -244.07398)"></path> <polygon class="cls-1" points="332.816 257.092 332.816 38.222 393.444 38.222 393.444 257.092 332.816 257.092 332.816 257.092"></polygon> <polygon class="cls-1" points="425.261 257.092 425.261 38.222 591.983 38.222 591.983 80.655 485.885 80.655 485.885 125.82 583.49 125.82 583.49 168.263 485.885 168.263 485.885 214.637 591.983 214.637 591.983 257.092 425.261 257.092 425.261 257.092"></polygon> <polygon class="cls-1" points="625.953 257.092 625.953 38.222 792.636 38.222 792.636 80.655 686.565 80.655 686.565 125.82 784.134 125.82 784.134 168.263 686.565 168.263 686.565 214.637 792.636 214.637 792.636 257.092 625.953 257.092 625.953 257.092"></polygon> <polygon class="cls-1" points="826.581 257.092 826.581 38.222 993.308 38.222 993.308 80.655 887.245 80.655 887.245 125.82 984.822 125.82 984.822 168.263 887.245 168.263 887.245 214.637 993.308 214.637 993.308 257.092 826.581 257.092 826.581 257.092"></polygon> </g> <g> <path class="cls-1" d="M59.88135,662.32227c-.37061,4.35547-.46338,5.65234-.64893,9.17383l-.55566.64844a36.57464,36.57464,0,0,1-17.51416,4.07715c-20.29395,0-32.248-13.43652-32.248-34.10059,0-4.541.37061-15.75391,8.43262-24.55664,7.877-8.61816,17.88477-9.54492,24.46387-9.54492a46.44938,46.44938,0,0,1,16.958,2.96484l.37061.74121c-.46289,3.33691-.55566,4.2627-.834,8.248l-.834.37012a25.672,25.672,0,0,0-14.73389-4.16992c-14.82666,0-22.88867,10.19336-22.88867,25.76172,0,17.51367,9.54492,25.66895,22.333,25.66895a28.08365,28.08365,0,0,0,17.05029-5.65332Z" transform="translate(-2.00696 -244.07398)"></path> <path class="cls-1" d="M104.08545,655.74316c0,11.49023.09277,12.50977.55615,18.5332l-.46338.46289c-4.35547.09277-5.09668.18555-9.35938.37109l-.37061-.55664.09277-3.33594a19.84682,19.84682,0,0,1-12.97363,4.72656c-9.2666,0-15.75342-6.30176-15.75342-15.47559,0-12.417,10.37891-16.40234,27.05908-18.34766l1.5752-.18555c0-2.502,0-4.2627-.834-5.74512-.92676-1.668-3.05811-3.42871-7.69141-3.42871-6.02344,0-10.19336,1.85254-14.08545,3.52148l-.74121-.46387c.18555-4.2627.18555-4.81836.27783-6.76465l.55615-.55566a47.75983,47.75983,0,0,1,16.03125-3.05859c6.85742,0,13.5293,2.31738,15.47559,9.54492.64844,2.59473.64844,7.69141.64844,11.583ZM93.707,648.97852c-9.35937,1.38965-18.07031,2.68652-18.07031,10.93457,0,.46289,0,8.43262,8.80371,8.43262A14.45757,14.45757,0,0,0,94.541,664.26758V648.793Z" transform="translate(-2.00696 -244.07398)"></path> <path class="cls-1" d="M126.97559,674.73926c-4.44775.09277-5.37451.18555-9.73.37109l-.46338-.64941c.18555-6.5791.46338-14.91895.46338-32.71094,0-12.78809,0-26.50293-.92676-38.36426l.46338-.55566c4.54053-.74121,5.46729-.92676,10.10059-1.94629l.55615.64941C126.79,613.67188,126.79,625.9043,126.79,638.043c0,20.29395.27832,27.33691.7417,36.14063Z" transform="translate(-2.00696 -244.07398)"></path> <path class="cls-1" d="M178.68506,674.832c-5.09668,0-5.375,0-10.19336.27832l-.55615-.64941c.18555-5.83789.27783-10.37793.27783-21.2207,0-14.36328,0-29.09668-.834-43.18262l.46338-.64844c1.48291,0,8.43262-.18555,10.10059-.18555l6.11621-.18457c6.11572,0,10.8418,0,15.29,1.38965,10.28613,3.33594,12.97314,11.86133,12.97314,18.25488A20.01981,20.01981,0,0,1,209.543,639.0625c-5.375,8.98926-15.75342,10.93457-26.78076,10.93457-1.668,0-2.87256-.09277-4.16992-.09277.09277,10.00879.09277,12.97363.64844,24.2793Zm9.2666-32.80371c2.502-.18555,9.17383-.834,12.417-6.58008a13.629,13.629,0,0,0,1.57568-6.67187,14.09185,14.09185,0,0,0-1.1123-5.74512c-3.05762-6.39355-10.10059-6.48633-13.99268-6.48633a80.32784,80.32784,0,0,0-8.33984.37012c0,4.2627-.09277,8.61816-.09277,12.97363,0,4.16992.09277,8.33984.09277,12.50977C181.65039,642.30566,185.44971,642.30566,187.95166,642.02832Z" transform="translate(-2.00696 -244.07398)"></path> <path class="cls-1" d="M261.99414,658.98633a22.0809,22.0809,0,0,1-6.02344,11.21191c-4.07715,4.07813-9.54443,5.65332-16.03125,5.65332-8.33984,0-13.62207-3.15039-16.5874-6.209-6.30127-6.39355-6.394-15.8457-6.394-18.9043,0-3.52051.18555-12.60254,6.394-18.81055,2.59473-2.6875,7.96924-6.4873,17.23633-6.4873,6.30127,0,12.50977,2.03906,16.58691,6.67188,4.2627,4.91211,5.46777,11.39844,5.65283,17.88477A40.02807,40.02807,0,0,1,261.99414,658.98633ZM250.04,637.76563c-1.76074-2.873-4.72607-5.28223-9.915-5.28223a11.49994,11.49994,0,0,0-10.19336,5.375c-2.502,3.79883-2.78027,9.17383-2.78027,13.06543,0,3.707.09277,13.06641,7.41357,16.77246a12.38881,12.38881,0,0,0,5.46729,1.20508,11.26305,11.26305,0,0,0,10.564-6.209c2.13135-4.16992,2.22412-10.37793,2.13135-12.32422C252.72754,648.05176,252.35693,641.84277,250.04,637.76563Z" transform="translate(-2.00696 -244.07398)"></path> <path class="cls-1" d="M283.40186,674.73926c-4.44775.09277-5.37451.18555-9.73.37109l-.46338-.64941c.18555-6.5791.46338-14.91895.46338-32.71094,0-12.78809,0-26.50293-.92676-38.36426l.46338-.55566c4.54053-.74121,5.46729-.92676,10.10059-1.94629l.55615.64941c-.64844,12.13867-.64844,24.37109-.64844,36.50977,0,20.29395.27783,27.33691.74121,36.14063Z" transform="translate(-2.00696 -244.07398)"></path> <path class="cls-1" d="M333.16455,627.20117c-5.28174,13.06641-14.17773,37.53027-16.49463,44.0166a250.75658,250.75658,0,0,0-7.59863,25.4834l-.834.74121c-4.6333.09277-5.46729.09277-9.82275.27832l-.37061-.64844.37061-.64844c1.668-3.42871,3.05811-7.043,4.6333-10.65723,1.29736-3.05762,2.873-6.02344,3.89209-9.2666a6.36993,6.36993,0,0,0,.27832-.74121c0-1.1123-13.80762-38.457-17.792-47.90918l.37061-.834c4.6333-.37012,5.56006-.37012,10.28564-.92578l.55615.55566c2.502,8.33984,3.70654,12.23145,5.74512,18.25488l5.83838,17.69922,5.28174-16.30859c1.94629-6.39453,4.2627-13.99316,5.74561-19.27539l.64844-.55566c2.31689,0,4.81885,0,8.98877-.09277Z" transform="translate(-2.00696 -244.07398)"></path> <path class="cls-1" d="M390.34082,637.76563c6.76465,2.96484,15.75342,6.85742,15.75342,18.71875,0,10.37793-7.69141,19.7373-23.81543,19.7373a40.13874,40.13874,0,0,1-18.34766-4.07715l-.37061-.64844c.37061-3.24316.46289-5.00391.74121-8.52539l.92676-.37109a27.327,27.327,0,0,0,16.30908,5.46777c9.54492,0,13.5293-4.91113,13.5293-10.47168,0-6.48633-5.37451-8.98828-11.39795-11.30469l-4.6333-2.03906c-6.5791-3.05762-15.38281-7.043-15.38281-18.34766a17.11961,17.11961,0,0,1,2.873-9.73047c4.2627-6.11621,11.95361-8.1543,19.46-8.1543,7.32031,0,11.76855,1.38965,16.67969,2.96484l.46338.74121c-.37061,3.52148-.46338,4.81934-.74121,8.15527l-.74121.37012c-3.98486-2.03809-8.34033-4.2627-15.29-4.2627-7.69141,0-12.51025,3.61426-12.51025,9.082,0,4.16992,2.78027,6.11621,4.72607,7.32031,1.20459.74121,1.5752.92676,7.13525,3.33594Z" transform="translate(-2.00696 -244.07398)"></path> <path class="cls-1" d="M437.50977,667.51172c-.27832,3.05762-.27832,3.70605-.37109,6.39355l-.46289.55566a25.16879,25.16879,0,0,1-6.9502.834c-2.22412,0-8.062,0-10.93457-4.81836-1.668-2.6875-1.668-4.91113-1.668-15.8457l.18506-20.38672c-3.24316,0-3.33594.09277-6.67187.18555l-.37061-.55664c.18506-2.96484.18506-3.70605.18506-6.67187l.55615-.55566c2.03857,0,3.24316.09277,6.30127,0-.09229-1.94629-.09229-3.98437-.09229-5.93066l-.27832-5.28223.46338-.64844c4.16992-1.01953,5.18945-1.29785,9.45215-2.59473l.64844.46289c-.27783,6.11621-.37061,7.32129-.37061,14.08594,3.89209-.09277,5.00391-.09277,10.28613-.27832l.46338.55566c-.18555,2.41016-.27832,3.42871-.27832,6.58008l-.46338.55566c-4.6333-.09277-5.189-.18555-10.10059-.18555l-.18506,17.23633c.09277,1.1123.09277,6.39355.09277,7.69141,0,6.76465.834,8.89551,5.46729,8.89551a12.602,12.602,0,0,0,4.44775-.834Z" transform="translate(-2.00696 -244.07398)"></path> <path class="cls-1" d="M486.25244,626.92383c-.18555,7.042-.27783,13.62109-.27783,21.12793,0,11.39746.27783,18.25488.46338,22.23926,0,1.29785.09229,2.59473.18506,3.89258l-.37061.55566c-4.44775.09277-5.18945.18555-9.45215.37109l-.55566-.55664.09229-3.8916a23.67786,23.67786,0,0,1-14.54834,5.28223c-3.61426,0-7.59863-.834-10.564-3.15137-5.93066-4.81836-5.93066-12.69531-6.02344-19.92285V647.125c-.18555-13.252-.18555-14.73437-.46338-19.73828l.46338-.64844c4.35547-.09277,5.18945-.09277,9.54443-.46387l.55615.64941-.37061,20.29395c0,2.502-.09277,4.35449,0,8.80273.09277,3.89258.27783,12.23242,9.63721,12.23242,5.46729,0,9.35938-3.05859,11.5835-4.81934.09277-5.00391.09277-9.2666.09277-14.64062,0-12.88086-.09277-15.47559-.64893-21.499l.55615-.64844c4.2627-.09277,5.28174-.09277,9.54443-.37109Z" transform="translate(-2.00696 -244.07398)"></path> <path class="cls-1" d="M530.36328,602.83008c4.72559-.834,5.65234-1.01953,9.82227-1.94629l.64844.55664c-.64844,12.87988-.74121,35.86133-.74121,45.12793,0,14.36328.37109,21.2207.74121,27.61523l-.46289.64844c-4.07715,0-5.18945.09277-9.45215.27832l-.64844-.55664.18555-3.42871a19.60727,19.60727,0,0,1-12.78809,4.63379c-12.3252,0-20.8501-9.73047-20.8501-23.81543,0-10.10059,4.26221-16.49512,8.15479-19.92285,6.76465-6.11621,15.56738-6.39453,20.38672-6.39453,1.94531,0,2.87207,0,5.374.18555a205.52352,205.52352,0,0,0-.834-22.42578Zm.09277,30.4873c-1.57617-.09277-2.6875-.27832-4.63379-.27832-2.873,0-8.98828.18555-13.43652,4.35547-2.03906,1.94629-5.375,6.30176-5.375,14.54883,0,5.28223,1.4834,9.08105,3.42871,11.39844a12.20383,12.20383,0,0,0,9.54492,4.16992,15.37949,15.37949,0,0,0,10.37891-4.07812C530.54785,651.29492,530.54785,648.51465,530.45605,633.31738Z" transform="translate(-2.00696 -244.07398)"></path> <path class="cls-1" d="M591.80273,663.52637c-.46289,3.707-.55566,4.63379-.74121,8.248l-.55664.64844a30.2661,30.2661,0,0,1-14.82617,3.52148c-15.19727,0-24.74219-8.71094-24.74219-24.835,0-17.23633,10.37891-25.66895,22.51855-25.66895,7.32031,0,12.417,3.05859,15.19727,6.39453,5.28125,6.30078,5.09668,15.47461,5.00391,19.55273l-.64844.55566c-14.45605-.09277-16.958-.09277-32.15625,0,.09277,3.24316.37109,7.78418,3.52148,11.583,3.7998,4.541,9.082,5.00391,11.9541,5.00391a24.18893,24.18893,0,0,0,8.0625-1.38965,23.35528,23.35528,0,0,0,6.67188-4.07715Zm-8.61816-24.18555A10.36009,10.36009,0,0,0,573.084,632.1123c-5.18945,0-11.30566,3.52148-12.23242,12.78809,11.21289.09277,14.73438,0,23.25977-.09277A20.27154,20.27154,0,0,0,583.18457,639.34082Z" transform="translate(-2.00696 -244.07398)"></path> <path class="cls-1" d="M644.624,674.73926c-4.44824.09277-5.00391.09277-9.2666.37109l-.64844-.64941c0-1.01855.0918-2.03809.0918-3.05762.09277-4.541.09277-9.08105.09277-13.62207,0-14.27051-.09277-15.19727-.55566-17.14355-1.76074-7.042-7.043-7.042-8.33984-7.042-5.56055,0-9.82324,3.24316-12.3252,5.18945-.0918,16.124.09277,24.55664.74219,35.39844l-.55664.55566c-4.54.09277-5.28223.09277-9.72949.37109l-.46387-.64941c.09277-5.18848.27832-10.19336.27832-17.0498,0-14.82715-.64844-22.7041-1.1123-28.91211l.55664-.64941c4.63281-.834,5.4668-1.01855,9.82227-1.85254l.64844.64844-.09277,4.81836c2.40918-1.668,8.15527-5.74512,16.30957-5.74512a16.016,16.016,0,0,1,7.69141,1.76074,12.55458,12.55458,0,0,1,5.375,6.02344c1.2041,2.78027,1.29688,5.55957,1.38965,11.30469v10.84277c.27832,10.8418.37109,15.01172.64844,18.5332Z" transform="translate(-2.00696 -244.07398)"></path> <path class="cls-1" d="M678.81836,667.51172c-.27734,3.05762-.27734,3.70605-.37012,6.39355l-.46387.55566a25.16344,25.16344,0,0,1-6.9502.834c-2.22363,0-8.06152,0-10.93457-4.81836-1.668-2.6875-1.668-4.91113-1.668-15.8457l.18555-20.38672c-3.24316,0-3.33594.09277-6.67187.18555l-.37109-.55664c.18555-2.96484.18555-3.70605.18555-6.67187l.55664-.55566c2.03809,0,3.24316.09277,6.30078,0-.09277-1.94629-.09277-3.98437-.09277-5.93066q-.13916-2.64111-.27734-5.28223l.46289-.64844c4.16992-1.01953,5.18945-1.29785,9.45215-2.59473l.64844.46289c-.27832,6.11621-.37012,7.32129-.37012,14.08594,3.8916-.09277,5.00391-.09277,10.28516-.27832l.46387.55566c-.18555,2.41016-.27832,3.42871-.27832,6.58008l-.46289.55566c-4.63379-.09277-5.18945-.18555-10.10059-.18555l-.18555,17.23633c.09277,1.1123.09277,6.39355.09277,7.69141,0,6.76465.834,8.89551,5.4668,8.89551a12.60513,12.60513,0,0,0,4.44824-.834Z" transform="translate(-2.00696 -244.07398)"></path> <path class="cls-1" d="M714.77344,675.11035l-.46289-.64941c.18457-4.44727.27734-8.71.27734-17.14258,0-3.98535.09277-23.35254.09277-27.708,0-9.72949-.27832-14.7334-.64844-19.55273l.46289-.64844,12.418-.18555c1.85352-.0918,4.72559-.0918,7.22754-.0918,5.46777,0,11.30566.18457,15.93848,2.87207a14.02576,14.02576,0,0,1,7.32129,12.69531c0,3.24316-.92676,12.50977-13.80762,15.66113a22.06316,22.06316,0,0,1,8.52539,1.668c7.96973,3.52148,8.80371,10.56348,8.80371,13.99219,0,8.52539-5.28223,14.54883-12.69531,17.23633-4.91211,1.76074-9.82324,1.76074-17.14355,1.76074Zm10.00781-37.71582c8.33984.09277,14.73438,0,18.626-3.05762a10.784,10.784,0,0,0,3.7998-8.0625,9.74063,9.74063,0,0,0-2.59473-6.5791c-3.24316-3.15039-8.98926-3.15039-11.12012-3.15039-2.96582,0-5.83789.09277-8.71094.27734Zm0,7.78418c0,10.56445,0,12.13965.37109,22.24023h1.76074c6.9502,0,12.60254.09277,16.2168-1.39062A10.49327,10.49327,0,0,0,750.0791,655.835c0-10.8418-11.9541-10.93457-16.40137-10.93457-.834,0-1.668,0-6.67187.18555Z" transform="translate(-2.00696 -244.07398)"></path> <path class="cls-1" d="M793.17188,636.2832a9.52415,9.52415,0,0,0-3.707-.835,6.90807,6.90807,0,0,0-3.8916,1.20508c-3.7998,2.6875-3.7998,6.76465-3.7998,16.40234,0,10.4707.27832,15.93848.64941,21.12793l-.46387.64844c-4.35547,0-5.375.09277-9.82227.27832l-.46387-.55664c.09277-7.042.18555-13.43652.18555-22.05469,0-14.82617-.27832-18.626-.834-24l.55566-.64941c3.52148-.64844,5.74609-1.11133,9.6377-1.85254l.55566.55566-.46289,7.877c1.1123-2.96582,3.42871-8.89648,11.30566-8.89648a9.58869,9.58869,0,0,1,2.59375.27832l.37109.55566c-.92676,4.44824-1.1123,5.375-1.76074,9.45215Z" transform="translate(-2.00696 -244.07398)"></path> <path class="cls-1" d="M837.83789,655.74316c0,11.49023.0918,12.50977.55566,18.5332l-.46387.46289c-4.35449.09277-5.09668.18555-9.35937.37109l-.37012-.55664.09277-3.33594a19.84682,19.84682,0,0,1-12.97363,4.72656c-9.2666,0-15.75293-6.30176-15.75293-15.47559,0-12.417,10.37793-16.40234,27.05859-18.34766l1.5752-.18555c0-2.502,0-4.2627-.834-5.74512-.92676-1.668-3.05762-3.42871-7.69141-3.42871-6.02344,0-10.19336,1.85254-14.085,3.52148l-.74219-.46387c.18555-4.2627.18555-4.81836.27832-6.76465l.55664-.55566a47.753,47.753,0,0,1,16.03125-3.05859c6.85645,0,13.5293,2.31738,15.47461,9.54492.64941,2.59473.64941,7.69141.64941,11.583ZM827.459,648.97852c-9.35937,1.38965-18.07031,2.68652-18.07031,10.93457,0,.46289,0,8.43262,8.80371,8.43262a14.45757,14.45757,0,0,0,10.10059-4.07812V648.793Z" transform="translate(-2.00696 -244.07398)"></path> <path class="cls-1" d="M891.77148,674.73926c-4.44824.09277-5.00391.09277-9.2666.37109l-.64844-.64941c0-1.01855.0918-2.03809.0918-3.05762.09277-4.541.09277-9.08105.09277-13.62207,0-14.27051-.09277-15.19727-.55566-17.14355-1.76074-7.042-7.043-7.042-8.33984-7.042-5.56055,0-9.82324,3.24316-12.3252,5.18945-.0918,16.124.09277,24.55664.74219,35.39844l-.55664.55566c-4.54.09277-5.28223.09277-9.72949.37109l-.46387-.64941c.09277-5.18848.27832-10.19336.27832-17.0498,0-14.82715-.64844-22.7041-1.1123-28.91211l.55664-.64941c4.63281-.834,5.4668-1.01855,9.82227-1.85254l.64844.64844-.09277,4.81836c2.40918-1.668,8.15527-5.74512,16.30957-5.74512a16.016,16.016,0,0,1,7.69141,1.76074,12.55458,12.55458,0,0,1,5.375,6.02344c1.2041,2.78027,1.29688,5.55957,1.38965,11.30469v10.84277c.27832,10.8418.37109,15.01172.64844,18.5332Z" transform="translate(-2.00696 -244.07398)"></path> <path class="cls-1" d="M939.58789,663.80469c-.37012,3.98438-.46289,4.44824-.74121,8.24707l-.64844.64941a26.12094,26.12094,0,0,1-12.78809,3.15039c-13.99316,0-23.07422-10.10059-23.07422-24.55664,0-14.73437,8.89648-25.85449,23.25977-25.85449a30.46387,30.46387,0,0,1,12.69531,2.96582l.37012.64844c-.37012,3.33594-.46289,4.541-.64844,7.32031l-.74121.37109a17.56154,17.56154,0,0,0-10.28613-3.61426c-7.69141,0-14.45605,5.93066-14.45605,17.792,0,12.60254,7.13574,17.14355,14.36328,17.14355a18.36547,18.36547,0,0,0,11.9541-4.63379Z" transform="translate(-2.00696 -244.07398)"></path> <path class="cls-1" d="M988.23926,674.73926c-4.44824.09277-5.00391.09277-9.2666.37109l-.64844-.64941.0918-3.05762c.09277-4.81836.09277-9.72949.09277-14.54883l-.09277-9.915a28.49718,28.49718,0,0,0-.46289-6.30176c-1.01953-4.2627-3.61426-7.042-8.33984-7.042-5.28223,0-9.35937,2.96484-12.417,5.18945-.09277,16.124.0918,24.55664.64844,35.39844l-.46387.55566c-4.2627.09277-5.374.09277-9.915.37109l-.46289-.64941c.18457-6.5791.46289-14.91895.46289-32.71094,0-7.78418-.09277-15.56836-.18555-23.35156-.18555-8.15527-.46289-10.84277-.74121-15.0127l.46387-.55566c4.44727-.74121,5.93066-1.01953,10.10059-1.94629l.55566.64941c-.55566,9.915-.55566,19.92285-.55566,29.93066,2.96484-1.94629,8.80273-5.74512,16.58691-5.74512a15.69676,15.69676,0,0,1,6.209,1.1123,12.42627,12.42627,0,0,1,7.59863,8.80273c.46289,1.85352.46289,2.96582.64844,9.17383v10.84277l.09277,4.35547c.18555,7.7832.18555,9.08105.55566,14.17773Z" transform="translate(-2.00696 -244.07398)"></path> </g> <line class="cls-3" y1="326.11934" x2="995.99304" y2="326.11934"></line> </svg> 